
<svg version="1.1" xmlns="http://www.w3.org/2000/svg" width="1917" height="196">
<path d="M0 0 C1.99954746 -0.04254356 4.00041636 -0.04080783 6 0 C7.65877288 1.65877288 7.38162725 3.72485393 7.60668945 6.01220703 C7.7171611 7.11974335 7.82763275 8.22727966 7.94145203 9.36837769 C8.06003067 10.61064117 8.17860931 11.85290466 8.30078125 13.1328125 C8.43030842 14.46112379 8.55997699 15.7894213 8.68977356 17.1177063 C10.55174283 36.32727616 12.21977693 55.55565257 13.91448975 74.78051758 C14.37597845 80.01134196 14.83945285 85.24199041 15.30273438 90.47265625 C16.20370952 100.64827126 17.10257285 110.82407151 18 121 C19.63429099 119.36570901 19.39097663 117.38816176 19.63256836 115.13232422 C19.74616196 114.09389374 19.85975555 113.05546326 19.97679138 111.98556519 C20.09659866 110.85337555 20.21640594 109.72118591 20.33984375 108.5546875 C20.60083918 106.17447124 20.86190928 103.79426317 21.12304688 101.4140625 C21.53082839 97.64864277 21.93663957 93.88302163 22.34057617 90.1171875 C22.73104141 86.49160922 23.12886855 82.86689287 23.52734375 79.2421875 C23.6451268 78.12214325 23.76290985 77.002099 23.88426208 75.84811401 C24.49056444 70.35695247 25.25755678 65.24841326 27 60 C29.375 59.375 29.375 59.375 32 59 C34.4359932 61.4359932 34.64371946 62.94067769 35.42041016 66.27587891 C35.68052887 67.3768692 35.94064758 68.4778595 36.20864868 69.61221313 C36.48268524 70.80494843 36.7567218 71.99768372 37.0390625 73.2265625 C37.46764053 75.05349136 37.46764053 75.05349136 37.90487671 76.91732788 C38.6629879 80.15480425 39.41480249 83.39361358 40.16363525 86.63323975 C40.92937276 89.9390093 41.70330884 93.24285706 42.4765625 96.546875 C43.99195532 103.02950134 45.4990787 109.51400872 47 116 C47.433125 115.401875 47.86625 114.80375 48.3125 114.1875 C48.869375 113.465625 49.42625 112.74375 50 112 C50.41327545 111.43214279 50.8265509 110.86428558 51.25234985 110.27922058 C54.02297727 108.25121537 56.57385971 108.57889111 59.96240234 108.5324707 C60.66681961 108.51918228 61.37123688 108.50589386 62.09700012 108.49220276 C64.42676016 108.45349616 66.7558962 108.4379117 69.0859375 108.42578125 C70.70635114 108.41106219 72.32676332 108.39618263 73.94717407 108.38114929 C77.34503158 108.35415132 80.74267014 108.34060802 84.140625 108.33422852 C88.49165871 108.32335779 92.8403736 108.26165548 97.19072533 108.1875124 C100.53827719 108.13910459 103.88527087 108.12670067 107.23314285 108.12416649 C108.83679189 108.11693917 110.44043859 108.09647859 112.04374313 108.06246376 C124.60627652 107.81631229 124.60627652 107.81631229 128.08477783 110.77059937 C129.39595652 112.83062799 130.25368765 114.68298884 131 117 C131.33 117.66 131.66 118.32 132 119 C135.07429954 111.89383221 137.82286841 104.79989053 140.10546875 97.3984375 C141 95 141 95 143 93 C145.4375 93 145.4375 93 148 94 C151.25771624 98.82624629 151.68055678 103.06250549 153 109 C395.88 108.67 638.76 108.34 889 108 C890.32 103.71 891.64 99.42 893 95 C895 93 895 93 897.375 92.8125 C901.02410988 94.4632878 901.52570071 96.48036944 902.953125 100.11328125 C903.29859375 101.06589844 903.6440625 102.01851563 904 103 C904.44859375 104.18980469 904.8971875 105.37960938 905.359375 106.60546875 C909 116.42524114 909 116.42524114 909 120 C909.66 120 910.32 120 911 120 C911.28875 119.0925 911.5775 118.185 911.875 117.25 C914.25581395 110.37209302 914.25581395 110.37209302 917 109 C919.28047319 108.86669851 921.56484708 108.7986981 923.84887695 108.75952148 C924.55314819 108.74652512 925.25741943 108.73352875 925.98303223 108.72013855 C933.34308843 108.5934937 940.70428501 108.53669675 948.06518555 108.48510742 C951.55866565 108.45833964 955.05078543 108.4095817 958.54370117 108.34155273 C962.76071726 108.2596307 966.97643575 108.21692955 971.19420433 108.20204353 C972.80069496 108.18979117 974.40714236 108.16374654 976.01317787 108.12359428 C988.64067188 107.82367753 988.64067188 107.82367753 992.12216187 110.8364563 C993.41261161 112.8748113 994.30692838 114.69540662 995 117 C996.21095573 112.06082012 997.41930088 107.12101057 998.62548828 102.18066406 C999.03399466 100.50894991 999.44314809 98.8373937 999.85302734 97.16601562 C1000.45070737 94.72830347 1001.04627285 92.2900881 1001.640625 89.8515625 C1001.83805298 89.04277649 1002.03548096 88.23399048 1002.2388916 87.4006958 C1003.24827984 83.23093886 1004.21618441 79.05648245 1005.11914062 74.86230469 C1005.38570465 73.6270253 1005.38570465 73.6270253 1005.65765381 72.36679077 C1005.99231652 70.80102607 1006.32127562 69.23402781 1006.64361572 67.66567993 C1007.37332152 64.24290461 1008.03393283 61.94910076 1010 59 C1012.625 58.8125 1012.625 58.8125 1015 59 C1016.96362076 62.35539805 1017.4475574 65.29996746 1017.86962891 69.14550781 C1018.07962021 71.00698456 1018.07962021 71.00698456 1018.29385376 72.90606689 C1018.43825415 74.2550687 1018.58248647 75.60408851 1018.7265625 76.953125 C1018.87997769 78.33753757 1019.03407053 79.72187521 1019.18881226 81.10614014 C1019.59339898 84.74187433 1019.98879065 88.37855142 1020.38226318 92.01550293 C1020.78574203 95.72969975 1021.19792646 99.44292913 1021.609375 103.15625 C1022.41476384 110.43658209 1023.21043921 117.7179325 1024 125 C1024.0822712 124.05190177 1024.0822712 124.05190177 1024.16620445 123.08465004 C1025.50013901 107.71951484 1026.84402109 92.35528733 1028.19904137 76.99199867 C1028.85407248 69.5624684 1029.50570804 62.13266922 1030.14941406 54.70214844 C1030.71034414 48.22723838 1031.27758031 41.75291744 1031.8524605 35.27923048 C1032.15675616 31.85005774 1032.45784289 28.42067005 1032.75138474 24.99055862 C1033.07884396 21.16550356 1033.42037823 17.34177829 1033.76318359 13.51806641 C1033.90668495 11.80364098 1033.90668495 11.80364098 1034.05308533 10.05458069 C1034.14839035 9.01689041 1034.24369537 7.97920013 1034.34188843 6.9100647 C1034.42116262 6.00486399 1034.50043682 5.09966328 1034.58211327 4.16703224 C1035 2 1035 2 1037 0 C1039.5625 -0.1875 1039.5625 -0.1875 1042 0 C1046.61312137 4.61312137 1044.47565892 20.09892648 1044.75610352 26.63916016 C1044.8249766 28.19727621 1044.89409556 29.75538141 1044.96343994 31.31347656 C1045.14974773 35.51512312 1045.33264304 39.71691192 1045.51489758 43.91873598 C1045.70640989 48.32037312 1045.90109972 52.72186971 1046.09544373 57.12338257 C1046.46242758 65.4457049 1046.82657888 73.76814863 1047.18969721 82.09064043 C1047.60346667 91.57083758 1048.02041723 101.05089401 1048.43762696 110.53094029 C1049.2952757 130.02047304 1050.14895575 149.5101778 1051 169 C1051.33 169 1051.66 169 1052 169 C1052.04969374 168.4143181 1052.09938747 167.82863621 1052.15058708 167.22520638 C1053.35931815 152.98669379 1054.57802307 138.74906456 1055.80788994 124.51236153 C1056.40239827 117.62762969 1056.99350397 110.74263705 1057.57666016 103.85693359 C1058.1390337 97.21673705 1058.71080912 90.57739419 1059.28842545 83.93850327 C1059.50767227 81.40054127 1059.72372224 78.86230109 1059.93658066 76.32379532 C1060.23435459 72.77904726 1060.54329406 69.23544241 1060.85498047 65.69189453 C1060.98445572 64.10370407 1060.98445572 64.10370407 1061.11654663 62.48342896 C1061.2034375 61.52146606 1061.29032837 60.55950317 1061.37985229 59.56838989 C1061.48770207 58.31014247 1061.48770207 58.31014247 1061.59773064 57.02647591 C1062 55 1062 55 1064 53 C1066.625 52.875 1066.625 52.875 1069 53 C1070.77115093 58.50829618 1071.54028267 63.76290239 1072.05322266 69.51538086 C1072.18533394 70.90679794 1072.18533394 70.90679794 1072.32011414 72.32632446 C1072.60772027 75.37194479 1072.88594837 78.41834326 1073.1640625 81.46484375 C1073.36240699 83.58481685 1073.5613392 85.70473503 1073.76083374 87.82460022 C1074.28288566 93.38888028 1074.79697345 98.95386818 1075.30938721 104.51904297 C1075.83424796 110.20390099 1076.36666363 115.88805086 1076.8984375 121.57226562 C1077.93967278 132.71416492 1078.97249294 143.8568269 1080 155 C1081.66066024 147.94267882 1083.27832923 140.90013274 1084.5703125 133.765625 C1084.82938834 132.35415955 1085.08850392 130.9427014 1085.34765625 129.53125 C1085.74157433 127.36544568 1086.13414956 125.19940438 1086.52587891 123.03320312 C1086.91243192 120.90173375 1087.30364185 118.7711589 1087.6953125 116.640625 C1087.92234863 115.38797852 1088.14938477 114.13533203 1088.38330078 112.84472656 C1089 110 1089 110 1090 109 C1091.56547048 108.90673284 1093.13512772 108.88254418 1094.70336914 108.88647461 C1095.70433121 108.88655014 1096.70529327 108.88662567 1097.73658752 108.88670349 C1098.8251152 108.89186478 1099.91364288 108.89702606 1101.03515625 108.90234375 C1102.6977372 108.90446617 1102.6977372 108.90446617 1104.39390564 108.90663147 C1107.95013069 108.91224967 1111.50629383 108.92480525 1115.0625 108.9375 C1117.46679597 108.94251266 1119.87109292 108.94707597 1122.27539062 108.95117188 C1128.18361504 108.96222501 1134.0918031 108.97898083 1140 109 C1140.30413818 108.06196533 1140.60827637 107.12393066 1140.92163086 106.1574707 C1141.90873625 103.26722076 1143.05333076 100.83192491 1144.5625 98.1875 C1144.99691406 97.41792969 1145.43132812 96.64835937 1145.87890625 95.85546875 C1147 94 1147 94 1148 93 C1149.66617115 92.95936168 1151.33388095 92.957279 1153 93 C1155.66666667 98.33333333 1158.33333333 103.66666667 1161 109 C1161.33994995 107.43318481 1161.33994995 107.43318481 1161.68676758 105.8347168 C1162.53103666 101.95768968 1163.38989022 98.08401522 1164.25317383 94.21118164 C1164.62467285 92.53497676 1164.99221778 90.85789041 1165.35571289 89.17993164 C1165.8790888 86.76726151 1166.41663366 84.35812567 1166.95703125 81.94921875 C1167.11653763 81.19912033 1167.27604401 80.44902191 1167.44038391 79.67619324 C1168.95707966 73.03339725 1168.95707966 73.03339725 1172 71 C1174.0625 71 1174.0625 71 1176 72 C1177.77058512 75.65276949 1178.47365214 79.16819975 1179.05322266 83.16723633 C1179.23325836 84.38812454 1179.41329407 85.60901276 1179.5987854 86.86689758 C1179.78734429 88.18858981 1179.97576683 89.5103015 1180.1640625 90.83203125 C1180.36244562 92.19259908 1180.5613775 93.553087 1180.76083374 94.91349792 C1181.28249503 98.48175554 1181.79672487 102.05104538 1182.30938721 105.62060547 C1182.83456553 109.26790846 1183.36680271 112.91418042 1183.8984375 116.56054688 C1184.93918257 123.70604373 1185.97207481 130.85264642 1187 138 C1188.2456022 134.31305238 1189.37192161 130.68963195 1190.21875 126.890625 C1190.42886719 125.97152344 1190.63898438 125.05242187 1190.85546875 124.10546875 C1191.28851278 122.18695246 1191.71814992 120.26766428 1192.14453125 118.34765625 C1192.35464844 117.43371094 1192.56476563 116.51976563 1192.78125 115.578125 C1192.96751953 114.74700195 1193.15378906 113.91587891 1193.34570312 113.05957031 C1194 111 1194 111 1196 109 C1198.68063427 108.81200709 1201.25709458 108.74818009 1203.93798828 108.77294922 C1205.16737625 108.77251114 1205.16737625 108.77251114 1206.42160034 108.77206421 C1209.13794443 108.77346056 1211.85401618 108.78903599 1214.5703125 108.8046875 C1216.45075328 108.80841655 1218.33119599 108.81126403 1220.2116394 108.81326294 C1225.16665998 108.82090793 1230.12156374 108.84056381 1235.07653809 108.8626709 C1240.1304364 108.88311072 1245.18435354 108.89226066 1250.23828125 108.90234375 C1260.15890555 108.92380891 1270.07944307 108.95795526 1280 109 C1280.12552246 108.32018066 1280.25104492 107.64036133 1280.38037109 106.93994141 C1280.55133301 106.04452637 1280.72229492 105.14911133 1280.8984375 104.2265625 C1281.06520996 103.34049316 1281.23198242 102.45442383 1281.40380859 101.54150391 C1282.13901452 98.40739512 1283.39130082 95.77866222 1285 93 C1286.98 93.33 1288.96 93.66 1291 94 C1293.97 102.25 1296.94 110.5 1300 119 C1302.89202037 115.30592832 1302.89202037 115.30592832 1304.5625 112.3125 C1306 110 1306 110 1308 109 C1310.16649576 108.90556635 1312.33599486 108.87810015 1314.50454712 108.87974548 C1315.18004211 108.87889106 1315.8555371 108.87803663 1316.55150163 108.87715632 C1318.82553939 108.87550307 1321.09950414 108.88102034 1323.37353516 108.88647461 C1324.99942523 108.88675654 1326.62531544 108.88659863 1328.25120544 108.8860321 C1332.67451074 108.88574436 1337.0977891 108.89163737 1341.52108812 108.89860606 C1346.14022721 108.90484344 1350.75936687 108.9054437 1355.37850952 108.90663147 C1364.12973441 108.90974365 1372.88094686 108.91795552 1381.63216627 108.92798096 C1391.59332735 108.93914561 1401.55448902 108.94465344 1411.5156548 108.94967639 C1432.01044349 108.96013822 1452.50522096 108.97773548 1473 109 C1473 110.65 1473 112.3 1473 114 C1418.88 114.33 1364.76 114.66 1309 115 C1307.02 118.63 1305.04 122.26 1303 126 C1301.68 126.33 1300.36 126.66 1299 127 C1295.50220225 124.66813483 1295.25688194 123.65168053 1293.95703125 119.7734375 C1293.43012695 118.2265625 1293.43012695 118.2265625 1292.89257812 116.6484375 C1292.35793945 115.02808594 1292.35793945 115.02808594 1291.8125 113.375 C1291.44447266 112.28703125 1291.07644531 111.1990625 1290.69726562 110.078125 C1289.78888886 107.38838602 1288.890259 104.69577895 1288 102 C1285.95894452 105.06158322 1284.94396184 107.80759151 1283.78125 111.2578125 C1283 113 1283 113 1281 114 C1278.37568851 114.09305156 1275.77815204 114.12579615 1273.15380859 114.11352539 C1272.34397018 114.11367142 1271.53413177 114.11381744 1270.69975281 114.1139679 C1268.01595404 114.11326977 1265.33222419 114.10548204 1262.6484375 114.09765625 C1260.79041583 114.09579171 1258.93239367 114.09436798 1257.07437134 114.09336853 C1252.17857512 114.08954615 1247.28280845 114.07971823 1242.38702393 114.06866455 C1237.39343669 114.05844444 1232.39984468 114.05386962 1227.40625 114.04882812 C1217.60415366 114.03809573 1207.80207929 114.02102264 1198 114 C1197.8697644 114.79763763 1197.73952881 115.59527527 1197.60534668 116.41708374 C1197.43071899 117.47746857 1197.25609131 118.53785339 1197.07617188 119.63037109 C1196.90468628 120.67550873 1196.73320068 121.72064636 1196.55651855 122.79745483 C1195.69147691 127.77542891 1194.6151632 132.69800621 1193.5 137.625 C1193.18095703 139.09259766 1193.18095703 139.09259766 1192.85546875 140.58984375 C1192.64535156 141.52183594 1192.43523437 142.45382813 1192.21875 143.4140625 C1191.9393457 144.66630615 1191.9393457 144.66630615 1191.65429688 145.94384766 C1191 148 1191 148 1189 150 C1186.375 149.625 1186.375 149.625 1184 149 C1181.73865681 142.13999644 1180.86080726 135.10488774 1179.8359375 127.97265625 C1179.63742909 126.61496505 1179.4384986 125.2573355 1179.23916626 123.89976501 C1178.71877722 120.34780112 1178.20408187 116.79503535 1177.69061279 113.24206543 C1177.16440023 109.60813573 1176.632745 105.97500281 1176.1015625 102.34179688 C1175.06241349 95.22862849 1174.02928494 88.11460317 1173 81 C1172.76289307 82.05501709 1172.52578613 83.11003418 1172.28149414 84.19702148 C1171.40367457 88.09841364 1170.52105838 91.99870732 1169.63696289 95.89868164 C1169.25446009 97.58913918 1168.8732717 99.27989469 1168.4934082 100.97094727 C1167.94825199 103.39678579 1167.39843043 105.82152545 1166.84765625 108.24609375 C1166.6778273 109.00651474 1166.50799835 109.76693573 1166.33302307 110.55039978 C1165.11387171 115.88612829 1165.11387171 115.88612829 1164 117 C1162.00041636 117.04080783 1159.99954746 117.04254356 1158 117 C1157.50628906 115.85660156 1157.01257812 114.71320313 1156.50390625 113.53515625 C1155.85689488 112.044217 1155.2097527 110.5533345 1154.5625 109.0625 C1154.23701172 108.30775391 1153.91152344 107.55300781 1153.57617188 106.77539062 C1152.19897394 103.12971311 1152.19897394 103.12971311 1150 100 C1147.69 104.29 1145.38 108.58 1143 113 C1126.5 113 1110 113 1093 113 C1092.67 116.3 1092.34 119.6 1092 123 C1091.7655887 124.71730565 1091.51472601 126.43265433 1091.23144531 128.14257812 C1091.08749329 129.01628052 1090.94354126 129.88998291 1090.79522705 130.79016113 C1090.13301877 134.67618936 1089.4638866 138.56086373 1088.78125 142.44335938 C1088.42487324 144.49383596 1088.07797663 146.54598117 1087.74023438 148.59960938 C1087.24934249 151.58097205 1086.72961347 154.55599409 1086.203125 157.53125 C1086.05707825 158.45200317 1085.91103149 159.37275635 1085.76055908 160.32141113 C1084.60667566 166.57491598 1084.60667566 166.57491598 1081.54980469 168.71679688 C1079 169 1079 169 1076 167 C1075.48774344 164.47582922 1075.17117191 162.14472197 1074.95678711 159.59130859 C1074.88153305 158.82667801 1074.80627899 158.06204742 1074.72874451 157.27424622 C1074.48190058 154.7333712 1074.25471907 152.19112254 1074.02734375 149.6484375 C1073.8583368 147.87346406 1073.68803417 146.09861355 1073.51649475 144.32388306 C1073.06626471 139.63258912 1072.63230839 134.93993099 1072.2020874 130.24676514 C1071.68226872 124.60478385 1071.14522251 118.9644242 1070.60897923 113.32398415 C1070.19040279 108.92019009 1069.77480607 104.51620049 1069.36936951 100.11117554 C1068.4358813 90.04621778 1067.32270945 80.02136603 1066 70 C1065.9240767 70.8856879 1065.9240767 70.8856879 1065.84661961 71.78926849 C1064.61295901 86.17935483 1063.37757744 100.56929267 1062.14029789 114.9590683 C1061.54199192 121.91795287 1060.94426111 128.87688593 1060.34790039 135.8359375 C1059.77224375 142.55336988 1059.19496304 149.2706609 1058.61669731 155.98786926 C1058.39648216 158.54901013 1058.17680877 161.11019765 1057.95768929 163.6714325 C1057.65039717 167.26220024 1057.3411691 170.85279645 1057.03149414 174.44335938 C1056.94158203 175.49928284 1056.85166992 176.5552063 1056.7590332 177.64312744 C1056.28499121 183.11458193 1055.72341567 188.55574142 1055 194 C1052.6875 195.125 1052.6875 195.125 1050 196 C1047 194 1047 194 1046.55899048 192.2040863 C1046.52743866 191.46570023 1046.49588684 190.72731415 1046.46337891 189.96655273 C1046.41949539 189.10592224 1046.37561188 188.24529175 1046.33039856 187.35858154 C1046.29613266 186.39333557 1046.26186676 185.4280896 1046.2265625 184.43359375 C1046.1533503 182.86620453 1046.1533503 182.86620453 1046.07865906 181.26715088 C1045.91366673 177.65774347 1045.76962745 174.04777698 1045.625 170.4375 C1045.51066747 167.84670298 1045.39497562 165.25596567 1045.27807617 162.6652832 C1045.00396748 156.54610648 1044.7412588 150.42650126 1044.48291016 144.30664062 C1043.96614896 132.09202606 1043.41889231 119.87879097 1042.87232971 107.66547966 C1041.5647545 78.4443865 1040.27777571 49.22240981 1039 20 C1038.89168854 21.21283661 1038.78337708 22.42567322 1038.67178345 23.67526245 C1037.64429611 35.17786418 1036.61475231 46.6802803 1035.58326149 58.18252373 C1035.05319301 64.09408595 1034.52381672 70.00570836 1033.99609375 75.91748047 C1033.48555241 81.63647582 1032.97309959 87.35529712 1032.45939255 93.07400894 C1032.26499536 95.24170117 1032.07125481 97.40945241 1031.87822342 99.57726669 C1030.96191831 109.86319281 1030.02644033 120.14631004 1028.92724609 130.41455078 C1028.80922606 131.55381421 1028.80922606 131.55381421 1028.68882179 132.71609306 C1028.11812462 137.88187538 1028.11812462 137.88187538 1027 139 C1024.5625 139.1875 1024.5625 139.1875 1022 139 C1019.39659678 136.39659678 1019.54657067 134.9025169 1019.14624023 131.26855469 C1019.00947372 130.06680603 1018.87270721 128.86505737 1018.73179626 127.62689209 C1018.52231102 125.66915863 1018.52231102 125.66915863 1018.30859375 123.671875 C1018.15771423 122.32138164 1018.00601495 120.97097963 1017.85353088 119.6206665 C1017.45342069 116.05962936 1017.06353396 112.49754731 1016.67602539 108.93511963 C1016.20540398 104.62377953 1015.72409637 100.31362284 1015.24303532 96.00343704 C1014.86828699 92.64561596 1014.49613618 89.28758982 1014.1292572 85.92889404 C1013.92883568 84.10735809 1013.92883568 84.10735809 1013.72436523 82.24902344 C1013.60826401 81.18472107 1013.49216278 80.1204187 1013.37254333 79.02386475 C1012.99971428 75.99768085 1012.52339443 73.00348072 1012 70 C1011.78115646 70.94840508 1011.78115646 70.94840508 1011.55789185 71.91596985 C1010.04029397 78.48729631 1008.51411795 85.05658766 1006.98291016 91.62475586 C1006.41233903 94.07736737 1005.84396855 96.53049191 1005.27783203 98.98413086 C1004.46442307 102.50771592 1003.64315766 106.02938949 1002.8203125 109.55078125 C1002.56814972 110.65086014 1002.31598694 111.75093903 1002.05618286 112.88435364 C1001.69603592 114.41560127 1001.69603592 114.41560127 1001.32861328 115.9777832 C1001.11987579 116.87713089 1000.91113831 117.77647858 1000.69607544 118.70307922 C1000 121 1000 121 998 124 C995.6875 124.6875 995.6875 124.6875 993 124 C990.61367902 121.14030557 988 117.82363906 988 114 C965.23 114.33 942.46 114.66 919 115 C917.02 118.63 915.04 122.26 913 126 C911.35 126.33 909.7 126.66 908 127 C904.91567528 122.4113574 903.21421391 117.48334081 901.375 112.3125 C900.75872951 110.59993015 900.14158426 108.88767476 899.5234375 107.17578125 C899.1200415 106.04523315 899.1200415 106.04523315 898.70849609 104.8918457 C898.01987089 102.95214106 898.01987089 102.95214106 897 101 C896.73445313 101.85464844 896.46890625 102.70929688 896.1953125 103.58984375 C895.84210938 104.69457031 895.48890625 105.79929687 895.125 106.9375 C894.77695313 108.03964844 894.42890625 109.14179687 894.0703125 110.27734375 C893 113 893 113 891 114 C889.34104187 114.09506969 887.67824527 114.12597401 886.01656538 114.12649983 C884.95354416 114.12925958 883.89052294 114.13201932 882.79528895 114.13486269 C881.61578924 114.13280737 880.43628953 114.13075205 879.2210474 114.12863445 C877.97193035 114.13038749 876.7228133 114.13214053 875.43584421 114.13394669 C871.94188716 114.13870244 868.44795599 114.13716676 864.95399762 114.13466892 C861.16297391 114.13304318 857.37195591 114.13717052 853.58093399 114.14057809 C846.92779895 114.14574538 840.27467119 114.147147 833.62153435 114.14612198 C823.72830866 114.14460147 813.83509108 114.14874896 803.94186697 114.1539966 C785.24775738 114.16368497 766.55365054 114.16648139 747.85953874 114.16705366 C733.42787803 114.16751257 718.99621839 114.16956758 704.56455803 114.17275429 C700.4158654 114.17365178 696.26717277 114.17454159 692.11848015 114.17542917 C690.57157747 114.17576074 690.57157747 114.17576074 688.99342424 114.17609901 C659.97237236 114.18225614 630.95132085 114.18619927 601.93026829 114.18575573 C600.28787922 114.18573236 600.28787922 114.18573236 598.61231058 114.18570852 C593.0623062 114.18562541 587.51230182 114.18552637 581.96229745 114.18542381 C580.85997331 114.18540387 579.75764916 114.18538392 578.62192126 114.18536337 C576.39275226 114.18532294 574.16358325 114.18528114 571.93441425 114.18523798 C537.24004476 114.18462501 502.54568505 114.19213457 467.85131836 114.20581055 C428.90630407 114.2211556 389.96129619 114.22977773 351.01627868 114.22884732 C346.8672717 114.22877269 342.71826472 114.22872399 338.56925774 114.22869301 C337.5476048 114.22868135 336.52595187 114.2286697 335.47333975 114.22865769 C318.99925508 114.22862686 302.52517886 114.23502527 286.0510967 114.24362527 C269.50806132 114.25208294 252.96503836 114.25310656 236.42200202 114.24651595 C226.58232311 114.24280772 216.74268182 114.24469042 206.90300686 114.25445829 C200.34039477 114.26042498 193.77781014 114.25920004 187.21519935 114.25198779 C183.46940939 114.24807806 179.72369262 114.24741083 175.97790761 114.25544515 C171.95347784 114.26400209 167.92922373 114.25727941 163.90479374 114.24888897 C162.13905592 114.25634124 162.13905592 114.25634124 160.33764663 114.26394406 C158.73935952 114.25681784 158.73935952 114.25681784 157.10878378 114.24954766 C156.18754175 114.24963588 155.26629972 114.2497241 154.31714127 114.249815 C152 114 152 114 149 112 C147.83203125 109.3984375 147.83203125 109.3984375 146.8125 106.375 C146.29623047 104.87066406 146.29623047 104.87066406 145.76953125 103.3359375 C145.51558594 102.56507812 145.26164062 101.79421875 145 101 C144.75354736 101.7520874 144.50709473 102.5041748 144.25317383 103.27905273 C143.12771781 106.67275571 141.97064961 110.05482213 140.8125 113.4375 C140.42513672 114.62150391 140.03777344 115.80550781 139.63867188 117.02539062 C139.24873047 118.15009766 138.85878906 119.27480469 138.45703125 120.43359375 C138.10616455 121.47572021 137.75529785 122.51784668 137.39379883 123.59155273 C136 126 136 126 133.45117188 126.921875 C131 127 131 127 129.32421875 125.81640625 C127.93785285 123.91475391 126.84433834 122.05257093 125.8125 119.9375 C125.46832031 119.24527344 125.12414062 118.55304688 124.76953125 117.83984375 C124 116 124 116 124 114 C101.23 114.33 78.46 114.66 55 115 C53.35 117.97 51.7 120.94 50 124 C48.02 124 46.04 124 44 124 C41.75192109 117.65961627 40.02814661 111.31030771 38.5546875 104.75 C38.33934357 103.81067627 38.12399963 102.87135254 37.90213013 101.90356445 C37.22221749 98.93665048 36.54801132 95.96848648 35.875 93 C35.19454549 90.00302288 34.51276987 87.00638107 33.82644653 84.01074219 C33.40112458 82.15412045 32.9792112 80.29671398 32.56100464 78.43847656 C32.37055573 77.60670898 32.18010681 76.77494141 31.98388672 75.91796875 C31.73431717 74.81618286 31.73431717 74.81618286 31.47970581 73.69213867 C31.14299293 71.98051296 31.14299293 71.98051296 30 71 C29.91674469 71.76341705 29.83348938 72.52683411 29.74771118 73.31338501 C28.96025224 80.52316848 28.1664411 87.7322112 27.36556435 94.94051552 C26.95409156 98.64600638 26.54504225 102.3517308 26.14160156 106.05810547 C25.75185024 109.63787679 25.35564148 113.21688063 24.95502853 116.79545212 C24.80364262 118.15786974 24.65454801 119.52054406 24.50783157 120.88347244 C24.30124621 122.79880196 24.08560469 124.71314803 23.86962891 126.62744141 C23.74971588 127.71554108 23.62980286 128.80364075 23.5062561 129.92471313 C22.98221728 133.10802236 22.10055183 135.97210619 21 139 C18.625 139.125 18.625 139.125 16 139 C13.60133146 136.60133146 13.667503 135.80445744 13.37985229 132.50753784 C13.29296143 131.56240326 13.20607056 130.61726868 13.11654663 129.64349365 C13.0302298 128.60340149 12.94391296 127.56330933 12.85498047 126.49169922 C12.75715271 125.39900726 12.65932495 124.30631531 12.55853271 123.18051147 C12.23618241 119.5559362 11.92666118 115.93038305 11.6171875 112.3046875 C11.39662986 109.796409 11.17527605 107.28820039 10.95315552 104.78005981 C10.42948968 98.84497758 9.91387877 92.90923024 9.40213597 86.97311127 C8.81913307 80.21561369 8.22589145 73.45902741 7.63177657 66.70249915 C6.40976733 52.80265196 5.20065772 38.9017066 4 25 C2.96166758 28.48363987 2.77608963 31.80801579 2.62072754 35.4322052 C2.57762695 36.39772522 2.57762695 36.39772522 2.53365564 37.38275069 C2.4384598 39.53732437 2.34913398 41.69210116 2.25976562 43.84692383 C2.19263898 45.39280247 2.1251401 46.93866498 2.05729675 48.48451233 C1.91198764 51.81288419 1.76924437 55.14135276 1.62846375 58.4699192 C1.40566019 63.73572926 1.17673459 69.00126223 0.94689941 74.26676941 C0.50114306 84.49778123 0.06131555 94.72904351 -0.37761688 104.96035004 C-0.93596366 117.97267375 -1.4959985 130.98492046 -2.06335115 143.99685496 C-2.29123577 149.22827449 -2.5156645 154.45982735 -2.73740387 159.6915108 C-2.87623458 162.95109948 -3.01792839 166.21055924 -3.1603756 169.46999168 C-3.22568467 170.97796839 -3.28980404 172.48599718 -3.35262489 173.99407959 C-3.43878154 176.05848782 -3.52924822 178.12266562 -3.62072754 180.18684387 C-3.67012733 181.34034238 -3.71952713 182.49384089 -3.77042389 183.68229389 C-4.4460488 193.4460488 -4.4460488 193.4460488 -7 196 C-9.625 195.625 -9.625 195.625 -12 195 C-12.90991229 192.27026312 -13.24982995 190.16768982 -13.49316406 187.32722473 C-13.61927063 185.88693909 -13.61927063 185.88693909 -13.7479248 184.41755676 C-13.8804364 182.83958565 -13.8804364 182.83958565 -14.015625 181.22973633 C-14.11170044 180.12048798 -14.20777588 179.01123962 -14.3067627 177.86837769 C-14.6245607 174.18987848 -14.93722747 170.51096087 -15.25 166.83203125 C-15.47001429 164.27712425 -15.69039685 161.72224893 -15.91113281 159.16740417 C-16.43311564 153.1175825 -16.95204986 147.067507 -17.46930313 141.01727933 C-18.4489949 129.55883304 -19.43472734 118.1009077 -20.42224121 106.64313316 C-20.74559806 102.88321597 -21.06677862 99.12311749 -21.38769531 95.36299133 C-21.5865258 93.04773428 -21.78541588 90.73248233 -21.984375 88.41723633 C-22.1168866 86.85444695 -22.1168866 86.85444695 -22.2520752 85.26008606 C-22.72143767 79.82069901 -23.2811139 74.41222627 -24 69 C-24.10831146 70.18128479 -24.21662292 71.36256958 -24.32821655 72.57965088 C-25.34931716 83.70460021 -26.37887199 94.82873888 -27.41673851 105.95213699 C-27.95006054 111.67099529 -28.48038578 117.39009873 -29.00390625 123.10986328 C-29.50911112 128.62831209 -30.02213032 134.14598328 -30.54060745 139.66320038 C-30.73717153 141.76969278 -30.93090427 143.87645134 -31.12177658 145.9834671 C-31.3893169 148.93146169 -31.66685062 151.87835476 -31.94677734 154.82519531 C-32.02374344 155.69913437 -32.10070953 156.57307343 -32.18000793 157.47349548 C-32.25848465 158.27833878 -32.33696136 159.08318207 -32.41781616 159.91241455 C-32.48234167 160.60929005 -32.54686718 161.30616554 -32.61334801 162.02415848 C-33.06028244 164.30805104 -33.79469841 166.01225454 -35 168 C-37 168.8125 -37 168.8125 -39 169 C-39.66 168.67 -40.32 168.34 -41 168 C-41.60668945 166.06762695 -41.60668945 166.06762695 -42.11328125 163.48828125 C-42.30704346 162.51624756 -42.50080566 161.54421387 -42.70043945 160.54272461 C-42.90241943 159.47675049 -43.10439941 158.41077637 -43.3125 157.3125 C-43.52543701 156.2201001 -43.73837402 155.1277002 -43.95776367 154.00219727 C-46.57023236 140.38160953 -48.79491291 126.69139284 -51 113 C-51.90415901 113.02664734 -51.90415901 113.02664734 -52.82658386 113.05383301 C-59.10413645 113.23091426 -65.38097956 113.35151221 -71.66040039 113.43945312 C-74.00314144 113.47966907 -76.34568191 113.53425187 -78.68774414 113.60351562 C-82.05665514 113.70064768 -85.42291252 113.7459455 -88.79296875 113.78125 C-89.83897751 113.82254028 -90.88498627 113.86383057 -91.96269226 113.90637207 C-99.08298641 113.91075944 -99.08298641 113.91075944 -101.7406311 111.27124023 C-103.03172959 109.2264572 -104.03658368 107.21472241 -105 105 C-105.598125 104.01 -106.19625 103.02 -106.8125 102 C-107.204375 101.34 -107.59625 100.68 -108 100 C-108.49371094 101.14339844 -108.98742187 102.28679687 -109.49609375 103.46484375 C-110.14310512 104.955783 -110.7902473 106.4466655 -111.4375 107.9375 C-111.76298828 108.69224609 -112.08847656 109.44699219 -112.42382812 110.22460938 C-114.88671875 115.88671875 -114.88671875 115.88671875 -116 117 C-117.66617115 117.04063832 -119.33388095 117.042721 -121 117 C-124.19420626 110.47769859 -125.58447221 103.69284863 -127.125 96.625 C-127.64524726 94.2623161 -128.16851444 91.90029442 -128.6953125 89.5390625 C-128.92234863 88.49959473 -129.14938477 87.46012695 -129.38330078 86.38916016 C-129.76811548 84.06257215 -129.76811548 84.06257215 -131 83 C-131.10831146 83.75310959 -131.21662292 84.50621918 -131.32821655 85.28215027 C-132.35150492 92.38940609 -133.38077901 99.49575726 -134.41673851 106.60117626 C-134.94908788 110.25391448 -135.47914016 113.90695501 -136.00390625 117.56079102 C-136.51069347 121.08883836 -137.02356219 124.6159533 -137.54060745 128.14251137 C-137.736523 129.48615586 -137.9302684 130.83011868 -138.12177658 132.17439842 C-138.39097897 134.06135642 -138.66871068 135.94709156 -138.94677734 137.83276367 C-139.10222015 138.90531906 -139.25766296 139.97787445 -139.41781616 141.08293152 C-139.98924688 143.94612082 -140.72723064 146.37423916 -142 149 C-143.9375 150 -143.9375 150 -146 150 C-149.61566272 147.50778574 -150.01062775 143.7531976 -150.82421875 139.70703125 C-150.97534622 139.00100266 -151.12647369 138.29497406 -151.28218079 137.56755066 C-151.76118958 135.31795036 -152.22451313 133.06544648 -152.6875 130.8125 C-153.01003812 129.28428754 -153.33359414 127.75628954 -153.65820312 126.22851562 C-154.45062346 122.48806057 -155.22899525 118.74492542 -156 115 C-157.5276297 114.99453156 -157.5276297 114.99453156 -159.08612061 114.98895264 C-168.67999203 114.95202434 -178.27354184 114.89427556 -187.86716843 114.81609726 C-192.79948007 114.77657431 -197.73161189 114.74440952 -202.6640625 114.72900391 C-207.42346848 114.71386898 -212.18238025 114.67948001 -216.94156647 114.63169098 C-218.75800534 114.61684445 -220.57451475 114.60895711 -222.3910141 114.60811615 C-224.93406471 114.60575452 -227.47574057 114.57874145 -230.01855469 114.54589844 C-231.14712387 114.55344398 -231.14712387 114.55344398 -232.29849243 114.56114197 C-235.76861643 114.4917214 -237.65338639 114.26873444 -240.43341064 112.11334229 C-242.11379366 109.84649138 -242.95588433 107.94999327 -243.75 105.25 C-243.99234375 104.45078125 -244.2346875 103.6515625 -244.484375 102.828125 C-244.65453125 102.22484375 -244.8246875 101.6215625 -245 101 C-245.26216309 101.71655762 -245.52432617 102.43311523 -245.79443359 103.17138672 C-246.98224475 106.4080539 -248.178507 109.64153272 -249.375 112.875 C-249.7875 114.00292969 -250.2 115.13085938 -250.625 116.29296875 C-251.02460938 117.36933594 -251.42421875 118.44570312 -251.8359375 119.5546875 C-252.20251465 120.54968262 -252.5690918 121.54467773 -252.94677734 122.56982422 C-254 125 -254 125 -256 127 C-258.41796875 126.984375 -258.41796875 126.984375 -261 126 C-262.80078125 123.453125 -262.80078125 123.453125 -264.3125 120.25 C-264.82425781 119.20328125 -265.33601562 118.1565625 -265.86328125 117.078125 C-266.9596633 114.10922791 -267.24873859 112.1236939 -267 109 C-265.140625 109.25390625 -265.140625 109.25390625 -263 110 C-261.734375 111.77734375 -261.734375 111.77734375 -260.75 113.9375 C-260.41484375 114.64777344 -260.0796875 115.35804687 -259.734375 116.08984375 C-259 118 -259 118 -259 120 C-258.34 120 -257.68 120 -257 120 C-256.867146 119.27385498 -256.73429199 118.54770996 -256.59741211 117.79956055 C-255.64545499 113.3385502 -254.06926928 109.11185592 -252.5625 104.8125 C-252.24990234 103.89791016 -251.93730469 102.98332031 -251.61523438 102.04101562 C-251.31037109 101.16767578 -251.00550781 100.29433594 -250.69140625 99.39453125 C-250.41498291 98.59893799 -250.13855957 97.80334473 -249.85375977 96.98364258 C-249 95 -249 95 -247 93 C-244.515625 93.078125 -244.515625 93.078125 -242 94 C-240.671875 96.109375 -240.671875 96.109375 -239.75 98.75 C-239.43546875 99.61109375 -239.1209375 100.4721875 -238.796875 101.359375 C-238.03162297 103.89521015 -237.50103327 106.40136538 -237 109 C-235.96683151 108.99333817 -234.93366302 108.98667633 -233.8691864 108.97981262 C-224.14278298 108.91905436 -214.41641796 108.87405281 -204.68986797 108.84456348 C-199.68907971 108.82889316 -194.68844438 108.80762996 -189.68774414 108.77368164 C-184.86372686 108.74113691 -180.03985687 108.72315729 -175.2157383 108.71536827 C-173.37328586 108.70981596 -171.53084167 108.69897392 -169.68845177 108.68280983 C-167.11202816 108.66110035 -164.53621683 108.65803033 -161.9597168 108.65942383 C-160.81172859 108.64324509 -160.81172859 108.64324509 -159.64054871 108.6267395 C-156.80743032 108.64337122 -154.57973931 108.65769404 -152.1028595 110.12016296 C-150.52870007 112.8033363 -150.01480757 115.3717228 -149.39453125 118.41796875 C-149.13349609 119.67158203 -148.87246094 120.92519531 -148.60351562 122.21679688 C-148.33959822 123.54031565 -148.07592949 124.86388403 -147.8125 126.1875 C-147.53814863 127.52300037 -147.26276947 128.85829005 -146.98632812 130.19335938 C-146.31406839 133.46030582 -145.65241858 136.72904357 -145 140 C-144.8858223 139.16506012 -144.77164459 138.33012024 -144.65400696 137.46987915 C-143.57483611 129.60872873 -142.47366228 121.75104733 -141.34754658 113.89647865 C-140.76934755 109.85802849 -140.1997838 105.81874513 -139.6496582 101.77636719 C-139.11860926 97.87651521 -138.56526778 93.98042918 -137.99620628 90.08594894 C-137.78286895 88.59830601 -137.57764277 87.10947695 -137.38060951 85.61958694 C-137.1035503 83.53516481 -136.79813079 81.45679665 -136.4855957 79.37744141 C-136.31904984 78.19163483 -136.15250397 77.00582825 -135.98091125 75.78408813 C-135 73 -135 73 -132.59465027 71.47640991 C-130 71 -130 71 -127 73 C-126.18773585 75.54352148 -125.55127707 77.96275328 -124.9921875 80.5625 C-124.82123566 81.30959229 -124.65028381 82.05668457 -124.47415161 82.82641602 C-123.92975017 85.21520848 -123.40185876 87.60728319 -122.875 90 C-122.33776433 92.391875 -121.79718481 94.78295676 -121.25442505 97.17358398 C-120.91770033 98.66179289 -120.58480073 100.15087338 -120.256073 101.64086914 C-119.43439251 105.4230422 -119.43439251 105.4230422 -118 109 C-117.59007812 108.01257813 -117.18015625 107.02515625 -116.7578125 106.0078125 C-116.21379826 104.71343379 -115.66951331 103.41916884 -115.125 102.125 C-114.72087891 101.14853516 -114.72087891 101.14853516 -114.30859375 100.15234375 C-113.11576714 97.33029055 -112.18742011 95.18742011 -110 93 C-107.61328125 92.97265625 -107.61328125 92.97265625 -105 94 C-102.98046875 96.87109375 -102.98046875 96.87109375 -101.1875 100.4375 C-100.72053711 101.3356543 -100.72053711 101.3356543 -100.24414062 102.25195312 C-98 106.65638736 -98 106.65638736 -98 109 C-97.37803741 108.99333817 -96.75607483 108.98667633 -96.11526489 108.97981262 C-89.65941522 108.9135967 -83.20366152 108.8682568 -76.74755859 108.83520508 C-74.33606043 108.82009055 -71.92458986 108.79959847 -69.51318359 108.77368164 C-66.05299072 108.73741575 -62.59316029 108.72030044 -59.1328125 108.70703125 C-58.04944611 108.69154739 -56.96607971 108.67606354 -55.84988403 108.66011047 C-54.8489975 108.65988388 -53.84811096 108.65965729 -52.81689453 108.65942383 C-51.93309113 108.65276199 -51.04928772 108.64610016 -50.13870239 108.63923645 C-49.4329306 108.75828842 -48.72715881 108.87734039 -48 109 C-46.09655222 111.85517167 -45.6157399 113.13075445 -45.03857422 116.37963867 C-44.87855927 117.26032516 -44.71854431 118.14101166 -44.55368042 119.04838562 C-44.38901276 119.99534805 -44.22434509 120.94231049 -44.0546875 121.91796875 C-43.87994904 122.89034988 -43.70521057 123.86273102 -43.525177 124.86457825 C-42.96850144 127.97107989 -42.42164282 131.07921885 -41.875 134.1875 C-41.49934307 136.29373496 -41.1230488 138.39985635 -40.74609375 140.50585938 C-39.8233292 145.66927784 -38.90861897 150.83407462 -38 156 C-37.90421661 155.02963806 -37.80843323 154.05927612 -37.70974731 153.05950928 C-36.79810178 143.82398568 -35.88632045 134.58847549 -34.97441292 125.35297775 C-34.5058251 120.60723257 -34.03728182 115.86148301 -33.56884766 111.11572266 C-33.11507983 106.51856659 -32.66118543 101.92142304 -32.20721054 97.32428741 C-32.03577221 95.58801958 -31.86437621 93.85174757 -31.6930275 92.11547089 C-31.61161388 91.29053383 -31.53020027 90.46559677 -31.44631958 89.61566162 C-31.36591871 88.79991795 -31.28551785 87.98417427 -31.20268059 87.14371109 C-31.04340384 85.53436705 -30.88295204 83.92513882 -30.72125435 82.31603622 C-30.28980353 78.01167437 -29.88256182 73.70648526 -29.5043335 69.39709473 C-29.42051359 68.47724415 -29.33669369 67.55739357 -29.25033379 66.60966873 C-29.08894584 64.83565173 -28.93450012 63.06098583 -28.78788948 61.28568649 C-28.22522518 55.22522518 -28.22522518 55.22522518 -26 53 C-23.4375 52.8125 -23.4375 52.8125 -21 53 C-19.34649891 54.65350109 -19.61930016 56.69560757 -19.39331055 58.97705078 C-19.2828389 60.07935028 -19.17236725 61.18164978 -19.05854797 62.31735229 C-18.88068001 64.1750676 -18.88068001 64.1750676 -18.69921875 66.0703125 C-18.57085129 67.38347443 -18.44248383 68.69663635 -18.31022644 70.04959106 C-16.41747931 89.58814783 -14.76962713 109.15027799 -13.08551025 128.7076416 C-12.62423919 134.05912847 -12.16063972 139.41041364 -11.69726562 144.76171875 C-10.79596311 155.1742886 -9.8971402 165.58707075 -9 176 C-8.9472685 174.81891505 -8.9472685 174.81891505 -8.89347172 173.6139698 C-8.03468334 154.38026189 -7.1748088 135.1466028 -6.31375217 115.91299629 C-5.89736334 106.61145453 -5.48133083 97.30989709 -5.06616211 88.00830078 C-4.70394526 79.89307903 -4.34103443 71.77788865 -3.97731918 63.66273391 C-3.78508356 59.37307959 -3.59317578 55.08341121 -3.40210152 50.79370499 C-2.94468848 40.5286632 -2.48031683 30.26399868 -2 20 C-1.95027416 18.92952171 -1.90054832 17.85904343 -1.84931564 16.7561264 C-1.72524319 14.1312125 -1.5949495 11.50673387 -1.46069336 8.88232422 C-1.42760102 8.1772983 -1.39450869 7.47227238 -1.36041355 6.74588203 C-1.1166188 2.2332376 -1.1166188 2.2332376 0 0 Z " fill="#FFFFFF" transform="translate(444,0)"/>
<path d="M0 0 C57.75 0 115.5 0 175 0 C175 1.65 175 3.3 175 5 C117.25 5 59.5 5 0 5 C0 3.35 0 1.7 0 0 Z " fill="#FFFFFF" transform="translate(0,109)"/>
</svg>
